<?xml version="1.0" encoding="UTF-8"?>
<svg id="Layer_1" xmlns="http://www.w3.org/2000/svg" version="1.1" viewBox="0 0 2000 2000">
  <!-- Generator: Adobe Illustrator 29.1.0, SVG Export Plug-In . SVG Version: 2.1.0 Build 142)  -->
  <defs>
    <style>
      .st0 {
        fill-rule: evenodd;
      }

      .st0, .st1 {
        fill: #fff;
      }

      .st2 {
        fill: #e63946;
      }

      .st1 {
        font-family: MontserratAlternates-Regular, 'Montserrat Alternates';
        font-size: 387.84px;
      }
    </style>
  </defs>
  <g>
    <path class="st2" d="M394.12,1202.8h233.25c-1.1,1.31-1.81,2.31-2.66,3.16-74.9,74.93-149.8,149.87-224.84,224.67-1.93,1.92-5.29,3.18-8.07,3.34-7.77.45-15.59.16-24.31.16,30.95-30.83,61.11-60.88,91.79-91.45l-85.86-90.62h4.15c30.38-.02,60.77-.11,91.15.13,2.52.02,6.05,1.5,7.82,3.29,11.3,11.42,22.25,23.19,32.97,34.48,22.06-22.03,44-43.94,66.03-65.95-1.2-.07-2.74-.23-4.28-.23-50.68-.01-101.36-.04-152.04.07-3.42,0-5.78-1.05-8.13-3.45-5.62-5.74-11.54-11.19-17.33-16.76l.34-.83ZM495.02,1305.25c-9.45-10.01-18.8-20.05-28.36-29.9-1.19-1.23-3.4-2.03-5.15-2.06-11.46-.18-22.92-.11-34.38-.07-1.03,0-2.05.37-3.96.75,17.14,18.1,33.72,35.59,50.31,53.1,7.36-7.46,14.23-14.41,21.53-21.81Z"/>
    <path class="st2" d="M651.85,1252.1c-30.82,30.7-60.98,60.74-91.66,91.3,28.56,30.13,56.55,59.64,85.13,89.79-2.16.19-3.52.41-4.88.41-30.01.02-60.02-.04-90.02.08-3.41.01-5.86-.96-8.16-3.42-9.93-10.67-20.01-21.2-29.97-31.84-.88-.94-1.35-2.27-1.86-3.14-22.75,22.81-44.59,44.69-66.73,66.89,1.54.07,3.21.22,4.88.22,50.34.02,100.68.07,151.02-.07,3.97-.01,6.7,1.14,9.38,3.97,5.23,5.53,10.82,10.71,17.18,16.93h-233.76c1.15-1.38,1.94-2.49,2.89-3.44,75-75.03,150.02-150.05,225.06-225.04,1.1-1.1,2.61-2.48,3.97-2.52,8.94-.22,17.88-.12,27.55-.12ZM546.37,1359.37c-7.38,7.34-14.4,14.32-21.73,21.61,9.43,9.99,19,20.26,28.8,30.32,1.15,1.18,3.52,1.58,5.34,1.61,8.52.16,17.04.07,25.57.07,3.87,0,7.73,0,11.6,0l.39-.91c-16.73-17.64-33.46-35.29-49.97-52.71Z"/>
  </g>
  <text class="st1" transform="translate(692.68 1483.21)"><tspan x="0" y="0">Mov</tspan></text>
  <path class="st0" d="M728.18,815.09l63.81,36.84c5.47,3.16,7.37,10.21,4.2,15.72l-36.84,63.81c-3.16,5.45-10.21,7.34-15.68,4.2l-63.85-36.84c-5.45-3.16-7.33-10.24-4.17-15.72l36.84-63.8c3.13-5.48,10.2-7.38,15.68-4.21M803.46,684.67l63.85,36.84c5.47,3.16,7.37,10.21,4.18,15.68l-36.82,63.81c-3.16,5.47-10.24,7.37-15.72,4.2l-63.81-36.84c-5.47-3.16-7.37-10.2-4.2-15.68l36.84-63.81c3.16-5.47,10.24-7.37,15.68-4.2ZM878.79,554.21l63.8,36.84c5.48,3.16,7.38,10.24,4.21,15.72l-36.85,63.81c-3.15,5.47-10.2,7.37-15.68,4.2l-63.84-36.84c-5.45-3.16-7.34-10.25-4.18-15.68l36.84-63.85c3.16-5.47,10.21-7.33,15.69-4.2ZM1386.65,1021.35l63.85,36.85c5.47,3.16,7.33,10.24,4.2,15.71l-36.84,63.81c-3.16,5.48-10.25,7.38-15.72,4.21l-63.81-36.85c-5.47-3.19-7.37-10.24-4.2-15.68l36.84-63.84c3.16-5.48,10.24-7.38,15.68-4.21ZM1461.97,890.93l63.81,36.84c5.47,3.14,7.38,10.21,4.21,15.68l-36.85,63.85c-3.16,5.45-10.2,7.33-15.68,4.18l-63.81-36.85c-5.47-3.13-7.37-10.2-4.2-15.68l36.84-63.81c3.16-5.47,10.21-7.37,15.68-4.2ZM1487.83,751.9l30.88,17.8-33.95,58.83c-3.16,5.47-1.31,12.52,4.18,15.68l63.84,36.84c5.45,3.16,12.49,1.27,15.68-4.2l33.94-58.83,30.1,17.38-181.78,314.88h-192.89l230-398.38ZM686.93,1056.86c-3.16,5.48-10.2,7.38-15.68,4.21l-63.84-36.82c-5.45-3.16-7.34-10.24-4.21-15.72l33.98-58.82c3.16-5.45,10.2-7.34,15.68-4.18l63.81,36.85c5.47,3.15,7.37,10.2,4.2,15.67l-33.94,58.79ZM673.13,1150.28l43.89-76.04,33.94-58.79,298.34-516.77-30.1-17.35-33.93,58.82c-3.16,5.45-10.25,7.34-15.68,4.21l-63.85-36.85c-5.45-3.16-7.34-10.24-4.2-15.71l33.97-58.79-30.88-17.83-298.34,516.73-33.94,58.79-92.11,159.58h47.58c-1.89-3.42-1.99-7.7.1-11.31l36.84-63.81c3.16-5.48,10.21-7.34,15.68-4.21l63.81,36.88c5.47,3.14,7.37,10.21,4.24,15.68l-15.45,26.77h40.1ZM766.29,1150.28l20.61-35.7,33.95-58.79,87.25-151.13c11.97-20.78,38.77-27.95,59.54-15.94l223.29,128.92c20.77,11.97,27.95,38.77,15.94,59.51l-42.19,73.13h-398.38ZM1417.96,711.53l-121.2,209.95c-11.97,20.74-38.77,27.95-59.55,15.95l-223.28-128.93c-20.77-12-27.95-38.77-15.98-59.54l121.23-209.92,298.77,172.48Z"/>
</svg>